<svg 
 xmlns="http://www.w3.org/2000/svg"
 xmlns:xlink="http://www.w3.org/1999/xlink"
 width="44px" height="41px"
>
	<path fill-rule="evenodd"  fill="rgb(84, 96, 118)"
	d="M43.957,9.659 L40.935,24.428 C40.729,25.434 39.839,26.164 38.819,26.164 L12.101,26.164 L12.737,29.272 L38.619,29.272 C39.215,29.272 39.699,29.759 39.699,30.360 C39.699,30.961 39.215,31.448 38.619,31.448 L12.736,31.448 C11.716,31.448 10.826,30.718 10.620,29.711 L5.393,4.161 L0.651,2.089 C0.104,1.850 -0.148,1.209 0.090,0.658 C0.328,0.107 0.964,-0.146 1.511,0.093 L6.253,2.166 C6.898,2.448 7.367,3.029 7.509,3.722 L8.189,7.044 L41.841,7.044 C42.493,7.044 43.104,7.336 43.516,7.845 C43.928,8.354 44.088,9.016 43.957,9.659 ZM8.634,9.220 L11.656,23.989 L38.819,23.989 L41.841,9.220 L8.634,9.220 ZM32.977,14.868 L17.495,14.868 C16.898,14.868 16.415,14.381 16.415,13.780 C16.415,13.179 16.898,12.692 17.495,12.692 L32.977,12.692 C33.574,12.692 34.057,13.179 34.057,13.780 C34.057,14.381 33.574,14.868 32.977,14.868 ZM18.338,18.341 L32.134,18.341 C32.731,18.341 33.215,18.828 33.215,19.429 C33.215,20.030 32.731,20.517 32.134,20.517 L18.338,20.517 C17.741,20.517 17.257,20.030 17.257,19.429 C17.257,18.828 17.741,18.341 18.338,18.341 ZM18.451,33.207 C20.584,33.207 22.320,34.955 22.320,37.104 C22.320,39.252 20.584,41.000 18.451,41.000 C16.317,41.000 14.581,39.252 14.581,37.104 C14.581,34.955 16.317,33.207 18.451,33.207 ZM18.451,38.824 C19.393,38.824 20.160,38.052 20.160,37.103 C20.160,36.155 19.393,35.383 18.451,35.383 C17.508,35.383 16.741,36.154 16.741,37.103 C16.741,38.052 17.508,38.824 18.451,38.824 ZM32.024,33.207 C34.158,33.207 35.894,34.955 35.894,37.104 C35.894,39.252 34.158,41.000 32.024,41.000 C29.891,41.000 28.155,39.252 28.155,37.104 C28.155,34.955 29.891,33.207 32.024,33.207 ZM32.024,38.824 C32.967,38.824 33.733,38.052 33.733,37.103 C33.733,36.155 32.967,35.383 32.024,35.383 C31.082,35.383 30.315,36.154 30.315,37.103 C30.315,38.052 31.082,38.824 32.024,38.824 Z"/>
</svg>
