<svg 
 xmlns="http://www.w3.org/2000/svg"
 xmlns:xlink="http://www.w3.org/1999/xlink"
 width="44px" height="44px"
>
	<path fill-rule="evenodd"  fill="rgb(84, 96, 118)"
	d="M40.307,7.387 C39.624,7.387 38.993,7.190 38.445,6.868 L25.636,19.702 C25.952,20.246 26.146,20.871 26.146,21.547 C26.146,23.591 24.496,25.241 22.452,25.241 C20.409,25.241 18.759,23.591 18.759,21.547 C18.759,20.866 18.955,20.238 19.275,19.691 L16.522,16.948 C15.976,17.265 15.350,17.460 14.671,17.460 C13.996,17.460 13.372,17.266 12.828,16.951 L6.878,22.901 C7.193,23.445 7.387,24.069 7.387,24.744 C7.387,26.788 5.737,28.438 3.693,28.438 C1.649,28.438 -0.000,26.788 -0.000,24.744 C-0.000,22.701 1.649,21.051 3.693,21.051 C4.369,21.051 4.992,21.245 5.536,21.559 L11.486,15.609 C11.171,15.065 10.978,14.442 10.978,13.766 C10.978,11.722 12.628,10.073 14.671,10.073 C16.715,10.073 18.365,11.722 18.365,13.766 C18.365,14.439 18.173,15.060 17.860,15.602 L20.623,18.355 C21.164,18.045 21.783,17.854 22.452,17.854 C23.127,17.854 23.750,18.047 24.293,18.361 L37.111,5.517 C36.803,4.978 36.613,4.361 36.613,3.693 C36.613,1.649 38.263,-0.000 40.307,-0.000 C42.351,-0.000 44.000,1.649 44.000,3.693 C44.000,5.737 42.351,7.387 40.307,7.387 ZM3.693,22.949 C2.701,22.949 1.898,23.752 1.898,24.744 C1.898,25.737 2.701,26.540 3.693,26.540 C4.686,26.540 5.489,25.737 5.489,24.744 C5.489,23.752 4.686,22.949 3.693,22.949 ZM14.671,11.971 C13.679,11.971 12.876,12.774 12.876,13.766 C12.876,14.759 13.679,15.562 14.671,15.562 C15.664,15.562 16.467,14.759 16.467,13.766 C16.467,12.774 15.664,11.971 14.671,11.971 ZM22.452,19.752 C21.460,19.752 20.657,20.555 20.657,21.547 C20.657,22.540 21.460,23.343 22.452,23.343 C23.445,23.343 24.248,22.540 24.248,21.547 C24.248,20.555 23.445,19.752 22.452,19.752 ZM40.307,1.898 C39.314,1.898 38.511,2.701 38.511,3.693 C38.511,4.686 39.314,5.489 40.307,5.489 C41.299,5.489 42.102,4.686 42.102,3.693 C42.102,2.701 41.299,1.898 40.307,1.898 ZM2.744,32.073 L4.642,32.073 L4.642,42.102 L13.723,42.102 L13.723,23.825 L15.620,23.825 L15.620,42.102 L21.971,42.102 L21.971,29.328 L23.869,29.328 L23.869,42.102 L39.358,42.102 L39.358,15.591 L41.256,15.591 L41.256,42.102 L43.971,42.102 L43.971,44.000 L0.029,44.000 L0.029,42.102 L2.744,42.102 L2.744,32.073 Z"/>
</svg>
