<svg 
	xmlns="http://www.w3.org/2000/svg"
	xmlns:xlink="http://www.w3.org/1999/xlink"
	width="35px" height="24px"
>
	<path fill-rule="evenodd"  fill="rgb(84, 96, 118)"
	d="M33.971,24.000 L1.029,24.000 C0.460,24.000 -0.000,23.539 -0.000,22.971 L-0.000,22.966 C-0.000,22.398 0.460,21.937 1.029,21.937 L33.971,21.937 C34.539,21.937 35.000,22.398 35.000,22.966 L35.000,22.971 C35.000,23.539 34.539,24.000 33.971,24.000 ZM33.971,13.031 L1.029,13.031 C0.460,13.031 -0.000,12.571 -0.000,12.003 L-0.000,11.997 C-0.000,11.429 0.460,10.969 1.029,10.969 L33.971,10.969 C34.539,10.969 35.000,11.429 35.000,11.997 L35.000,12.003 C35.000,12.571 34.539,13.031 33.971,13.031 ZM33.971,2.062 L1.029,2.062 C0.460,2.062 -0.000,1.602 -0.000,1.034 L-0.000,1.029 C-0.000,0.460 0.460,-0.000 1.029,-0.000 L33.971,-0.000 C34.539,-0.000 35.000,0.460 35.000,1.029 L35.000,1.034 C35.000,1.602 34.539,2.062 33.971,2.062 Z"/>
</svg>
