<svg 
 xmlns="http://www.w3.org/2000/svg"
 xmlns:xlink="http://www.w3.org/1999/xlink"
 width="44px" height="44px"
>
	<path fill-rule="evenodd"  fill="rgb(84, 96, 118)"
	d="M37.559,37.559 C33.403,41.716 27.879,44.000 22.000,44.000 C16.121,44.000 10.597,41.716 6.441,37.559 C2.284,33.402 -0.000,27.879 -0.000,22.000 C-0.000,16.121 2.284,10.597 6.441,6.441 C10.597,2.284 16.121,-0.000 22.000,-0.000 C27.879,-0.000 33.403,2.284 37.559,6.441 C41.716,10.597 44.000,16.121 44.000,22.000 C44.000,27.879 41.716,33.402 37.559,37.559 ZM22.000,2.247 C11.112,2.247 2.247,11.112 2.247,22.000 C2.247,32.888 11.112,41.753 22.000,41.753 C32.888,41.753 41.753,32.888 41.753,22.000 C41.753,11.112 32.888,2.247 22.000,2.247 ZM20.371,20.877 L23.638,20.877 C26.231,20.877 28.338,22.983 28.338,25.585 C28.338,28.160 26.260,30.257 23.694,30.294 C23.685,30.294 23.676,30.294 23.666,30.294 L23.123,30.294 L23.123,32.635 C23.123,33.253 22.618,33.758 22.000,33.758 C21.382,33.758 20.877,33.253 20.877,32.635 L20.877,30.294 L17.768,30.294 C17.151,30.294 16.645,29.789 16.645,29.171 C16.645,28.553 17.151,28.048 17.768,28.048 L23.638,28.048 C24.996,28.048 26.100,26.943 26.100,25.585 C26.100,24.228 24.996,23.123 23.638,23.123 L20.371,23.123 C17.778,23.123 15.662,21.008 15.662,18.414 C15.662,15.821 17.778,13.705 20.371,13.705 L20.886,13.705 L20.886,11.412 C20.886,10.794 21.391,10.289 22.009,10.289 C22.627,10.289 23.133,10.794 23.133,11.412 L23.133,13.705 L26.138,13.705 C26.756,13.705 27.261,14.211 27.261,14.829 C27.261,15.447 26.756,15.952 26.138,15.952 L20.371,15.952 C19.014,15.952 17.909,17.057 17.909,18.414 C17.909,19.772 19.014,20.877 20.371,20.877 Z"/>
</svg>
