<svg 
 xmlns="http://www.w3.org/2000/svg"
 xmlns:xlink="http://www.w3.org/1999/xlink"
 width="34px" height="35px"
>
	<path fill-rule="evenodd"  fill="rgb(84, 96, 118)"
	d="M27.778,29.489 C24.833,32.148 21.088,33.592 17.150,33.592 C16.886,33.592 16.614,33.585 16.342,33.570 C12.948,33.399 9.767,32.177 7.173,30.075 L7.516,33.942 C7.566,34.478 7.173,34.943 6.644,34.993 C6.616,35.000 6.587,35.000 6.558,35.000 C6.065,35.000 5.644,34.621 5.601,34.121 L5.029,27.767 C4.979,27.231 5.372,26.766 5.901,26.716 L12.254,26.144 C12.790,26.094 13.255,26.480 13.305,27.016 C13.355,27.552 12.962,28.017 12.433,28.067 L8.231,28.446 C10.789,30.576 13.963,31.655 17.143,31.655 C20.473,31.655 23.818,30.469 26.484,28.060 C30.279,24.629 31.887,19.404 30.679,14.430 C30.550,13.915 30.872,13.394 31.387,13.265 C31.901,13.136 32.423,13.458 32.552,13.973 C33.924,19.640 32.094,25.580 27.778,29.489 ZM27.949,8.312 L21.574,8.548 C21.560,8.548 21.553,8.548 21.538,8.548 C21.024,8.548 20.595,8.140 20.573,7.619 C20.552,7.083 20.966,6.639 21.503,6.618 L25.655,6.461 C20.416,2.194 12.683,2.265 7.516,6.940 C3.721,10.370 2.120,15.595 3.321,20.570 C3.450,21.084 3.128,21.606 2.613,21.735 C2.535,21.756 2.463,21.763 2.385,21.763 C1.949,21.763 1.556,21.470 1.448,21.027 C0.076,15.366 1.906,9.420 6.223,5.510 C9.360,2.665 13.427,1.215 17.658,1.429 C21.074,1.601 24.268,2.830 26.863,4.953 L26.713,1.000 C26.691,0.464 27.106,0.021 27.642,-0.000 C28.171,-0.022 28.621,0.393 28.642,0.929 L28.878,7.233 L28.878,7.240 C28.878,7.254 28.878,7.261 28.878,7.275 L28.878,7.347 C28.878,7.869 28.471,8.290 27.949,8.312 Z"/>
</svg>
